{"title":"Z Nation S03E01 1080p WEB-DL HEVC DD5.1 x265","uid":15891748,"size":1481682288,"categoryP":"video","categoryS":"hd___tv_shows","magnet":"?xt=urn:btih:59d8eceacfa1d57f189dcbb6bdb483a13eb4fc2c&amp;dn=Z+Nation+S03E01+1080p+WEB-DL+HEVC+DD5.1+x265&amp;tr=udp%3A%2F%2Ftracker.leechers-paradise.org%3A6969&amp;tr=udp%3A%2F%2Fzer0day.ch%3A1337&amp;tr=udp%3A%2F%2Fopen.demonii.com%3A1337&amp;tr=udp%3A%2F%2Ftracker.coppersurfer.tk%3A6969&amp;tr=udp%3A%2F%2Fexodus.desync.com%3A6969","seeders":4,"leechers":4,"uploader":"nayhtut","files":1,"time":1474760715,"description":"Source: Z Nation S03E01 1080p WEB-DL DD5 1 H264-ViSUM (3.32 GB)\r\n\r\n\r\nComplete name: Z.Nation.S03E01.1080p.WEB-DL.HEVC.DD5.1.x265.mkv\r\nFormat                                   : Matroska\r\nFormat version                           : Version 4 / Version 2\r\nFile size                                : 1.38 GiB\r\nDuration                                 : 1h 25mn\r\nOverall bit rate                         : 2 310 Kbps\r\nEncoded date                             : UTC 2016-09-24 17:45:26\r\nWriting application                      : mkvmerge v9.4.2 ('So High') 32bit\r\nWriting library                          : libebml v1.3.4 + libmatroska v1.4.5\r\nDURATION                                 : 01:25:31.936000000\r\n\r\nVideo\r\n\r\nID                                       : 1\r\nFormat                                   : V_MPEGH/ISO/HEVC\r\nCodec ID                                 : V_MPEGH/ISO/HEVC\r\nDuration                                 : 1h 25mn\r\nBit rate                                 : 1 880 Kbps\r\nWidth                                    : 1 920 pixels\r\nHeight                                   : 1 080 pixels\r\nDisplay aspect ratio                     : 16:9\r\nFrame rate                               : 23.976 fps\r\nBits/(Pixel*Frame)                       : 0.038\r\nStream size                              : 1.12 GiB (81%)\r\nTitle                                    : Z.Nation.S03E01.1080p.WEB-DL.HEVC.DD5.1.x265\r\nLanguage                                 : English\r\nDefault                                  : Yes\r\nForced                                   : No\r\nDURATION                                 : 01:25:31.960000000\r\n\r\nAudio\r\n\r\nID                                       : 2\r\nFormat                                   : AC-3\r\nFormat/Info                              : Audio Coding 3\r\nMode extension                           : CM (complete main)\r\nFormat settings, Endianness              : Big\r\nCodec ID                                 : A_AC3\r\nDuration                                 : 1h 25mn\r\nBit rate mode                            : Constant\r\nBit rate                                 : 384 Kbps\r\nChannel(s)                               : 6 channels\r\nChannel positions                        : Front: L C R, Side: L R, LFE\r\nSampling rate                            : 48.0 KHz\r\nBit depth                                : 16 bits\r\nCompression mode                         : Lossy\r\nStream size                              : 235 MiB (17%)\r\nTitle                                    : AC-3 5.1\r\nLanguage                                 : English\r\nDefault                                  : Yes\r\nForced                                   : No\r\n\r\nText\r\n\r\nID                                       : 3\r\nFormat                                   : ASS\r\nCodec ID                                 : S_TEXT/ASS\r\nTitle                                    : English\r\nLanguage                                 : English","torrent":{"xt":"urn:btih:59d8eceacfa1d57f189dcbb6bdb483a13eb4fc2c","amp;dn":"Z+Nation+S03E01+1080p+WEB-DL+HEVC+DD5.1+x265","amp;tr":["udp%3A%2F%2Ftracker.leechers-paradise.org%3A6969","udp%3A%2F%2Fzer0day.ch%3A1337","udp%3A%2F%2Fopen.demonii.com%3A1337","udp%3A%2F%2Ftracker.coppersurfer.tk%3A6969","udp%3A%2F%2Fexodus.desync.com%3A6969"],"infoHash":"59d8eceacfa1d57f189dcbb6bdb483a13eb4fc2c","infoHashBuffer":{"type":"Buffer","data":[89,216,236,234,207,161,213,127,24,157,203,182,189,180,131,161,62,180,252,44]},"announce":[],"urlList":[]}}